<svg xmlns="http://www.w3.org/2000/svg" width="5.0574in" height=".5342in" viewBox="0 0 364.1331 38.464"><g id="Layer_1"><path d="M51.3953,8.1253h5.9197c4.0305,0,5.9827,1.9343,5.9827,5.803v1.7471c0,3.8687-1.9522,5.8654-5.9827,5.8654h-1.8892v8.798h-4.0305V8.1253ZM57.315,17.984c1.3225,0,1.9523-.624,1.9523-2.1839v-1.9967c0-1.5599-.6298-2.1839-1.9523-2.1839h-1.8892v6.3645h1.8892Z" fill="#4d4d4f"></path><path d="M73.563,26.0957h-4.5343l-.6927,4.1806h-3.7786l4.1564-22.2134h5.4159l4.1564,22.2134h-4.0934l-.6927-4.1806h.063ZM72.9962,22.6638l-1.7004-10.5451-1.7003,10.5451h3.4007Z" fill="#4d4d4f"></path><path d="M81.3719,8.1253h5.9197c4.0934,0,5.9197,1.7471,5.9197,5.3662v1.1232c0,2.3087-.8187,3.8062-2.582,4.4926v.1248c1.8893.5615,2.645,2.1839,2.645,4.9918v3.2446c0,1.1232.063,1.9967.4408,2.8703h-4.0934c-.2519-.624-.3779-.936-.3779-2.9327v-3.4942c0-2.1215-.6927-2.8079-2.519-2.8079h-1.3855v9.1724h-4.0304V8.1253h.063ZM86.8508,17.6096c1.5744,0,2.393-.6863,2.393-2.4335v-1.3103c0-1.5599-.6297-2.2463-2.0152-2.2463h-1.8263v5.9901h1.4485Z" fill="#4d4d4f"></path><path d="M105.3661,26.0957h-4.535l-.6924,4.1806h-3.7785l4.1559-22.2134h5.416l4.157,22.2134h-4.094l-.692-4.1806h.063ZM104.7991,22.6638l-1.701-10.5451-1.7,10.5451h3.401Z" fill="#4d4d4f"></path><path d="M113.1751,8.1253h6.108c3.968,0,5.983,2.0591,5.983,5.8654v10.4204c0,3.8686-2.015,5.9277-5.983,5.9277h-6.108V8.1253ZM119.2201,26.7821c1.323,0,2.015-.624,2.015-2.2464v-10.6699c0-1.6223-.692-2.2463-2.015-2.2463h-2.078v15.1626h2.078Z" fill="#4d4d4f"></path><path d="M128.6671,8.1253h4.03v22.2135h-4.03V8.1253Z" fill="#4d4d4f"></path><path d="M135.8461,24.7854v-1.1232h3.778v1.2479c0,1.4352.693,2.2464,2.079,2.2464,1.385,0,2.078-.7488,2.078-2.3088s-.756-2.683-3.401-4.4302c-3.401-2.2463-4.471-4.1182-4.471-6.9261s2.078-5.8029,5.92-5.8029,5.793,2.2463,5.793,5.8653v.8112h-3.778v-.8736c0-1.4975-.63-2.3087-2.015-2.3087-1.386,0-2.016.7488-2.016,2.1839s.819,2.4959,3.464,4.1807c3.464,2.2463,4.408,4.1182,4.408,7.0509s-2.141,5.9277-6.045,5.9277-5.92-2.2463-5.92-5.8653l.126.1248Z" fill="#4d4d4f"></path><path d="M150.9601,8.1253h10.894v3.4943h-6.927v5.491h5.479v3.4942h-5.479v6.1773h6.927v3.4943h-10.894V8.1253Z" fill="#4d4d4f"></path><path d="M171.8681,8.1253h10.895v3.4943h-6.928v5.491h5.479v3.4942h-5.479v6.1773h6.928v3.4943h-10.895V8.1253Z" fill="#4d4d4f"></path><path d="M194.4131,26.0957h-4.534l-.693,4.1806h-3.778l4.156-22.2134h5.416l4.157,22.2134h-4.094l-.693-4.1806h.063ZM193.8471,22.6638l-1.701-10.5451-1.7,10.5451h3.401Z" fill="#4d4d4f"></path><path d="M202.1591,8.1253h5.92c4.094,0,5.92,1.7471,5.92,5.3662v1.1232c0,2.3087-.819,3.8062-2.582,4.4926v.1248c1.889.5615,2.645,2.1839,2.645,4.9918v3.2446c0,1.1232.063,1.9967.441,2.8703h-4.094c-.252-.624-.378-.936-.378-2.9327v-3.4942c0-2.1215-.692-2.8079-2.519-2.8079h-1.385v9.1724h-4.031V8.1253h.063ZM207.6381,17.6096c1.575,0,2.393-.6863,2.393-2.4335v-1.3103c0-1.5599-.629-2.2463-2.015-2.2463h-1.826v5.9901h1.448Z" fill="#4d4d4f"></path><path d="M221.1151,11.6195h-4.156v-3.4943h12.343v3.4943h-4.219v18.7192h-4.031V11.6195h.063Z" fill="#4d4d4f"></path><path d="M232.3241,8.1253h4.031v8.9853h4.282v-8.9853h4.031v22.2135h-4.031v-9.6716h-4.282v9.6716h-4.031V8.1253Z" fill="#4d4d4f"></path><path d="M263.3711,26.0957h-4.534l-.693,4.1806h-3.778l4.156-22.2134h5.416l4.157,22.2134h-4.094l-.693-4.1806h.063ZM262.7421,22.6638l-1.701-10.5451-1.7,10.5451h3.401Z" fill="#4d4d4f"></path><path d="M270.5511,24.6606v-10.982c0-3.8062,2.078-5.9277,5.92-5.9277s5.856,2.1839,5.856,5.9277v1.9967h-3.778v-2.1839c0-1.5599-.756-2.3087-2.015-2.3087-1.26,0-2.016.7488-2.016,2.3087v11.3564c0,1.5599.756,2.3087,2.016,2.3087,1.259,0,2.015-.7488,2.015-2.3087v-2.8079h3.778v2.6207c0,3.8062-2.078,5.9277-5.856,5.9277s-5.92-2.1839-5.92-5.9277Z" fill="#4d4d4f"></path><path d="M293.6001,26.0957h-4.534l-.693,4.1806h-3.779l4.157-22.2134h5.416l4.156,22.2134h-4.093l-.693-4.1806h.063ZM293.0331,22.6638l-1.7-10.5451-1.701,10.5451h3.401Z" fill="#4d4d4f"></path><path d="M301.3461,8.1253h6.109c3.967,0,5.982,2.0591,5.982,5.8654v10.4204c0,3.8686-2.015,5.9277-5.982,5.9277h-6.109V8.1253ZM307.3921,26.7821c1.322,0,2.015-.624,2.015-2.2464v-10.6699c0-1.6223-.693-2.2463-2.015-2.2463h-2.079v15.1626h2.079Z" fill="#4d4d4f"></path><path d="M316.8381,8.1253h10.895v3.4943h-6.927v5.491h5.478v3.4942h-5.478v6.1773h6.927v3.4943h-10.895V8.1253Z" fill="#4d4d4f"></path><path d="M330.8821,8.1253h5.667l2.645,15.7866,2.645-15.7866h5.668v22.2135h-3.778V13.6162l-2.96,16.7225h-3.338l-2.96-16.7225v16.7225h-3.463V8.1253h-.126Z" fill="#4d4d4f"></path><path d="M355.3161,20.9791l-4.849-12.8539h4.282l2.708,8.1117,2.708-8.1117h3.968l-4.849,12.8539v9.3596h-4.031v-9.3596h.063Z" fill="#4d4d4f"></path><g><path d="M18.6277,35.2241v-.1749c-1.8557-1.7505-4.7252-2.7878-7.8521-2.7878-1.577,0-2.5914.1076-3.3905.3091.0463.0416.0919.0845.139.1254.0994.0861.2134.164.3159.2488.7576-.1276,1.6896-.199,2.9355-.199,3.0186,0,5.8358.9097,7.8521,2.4783Z" fill="none"></path><path d="M6.6697,31.9274c.0599.059.1237.1136.1867.1691.8993-.2785,2.0361-.4348,3.9193-.4348,3.0522,0,5.8875.948,7.8521,2.575v-.6854c-1.8564-1.7506-4.7259-2.788-7.8521-2.788-2.4129,0-3.5204.2483-4.5322.7083l.0889.0964c.1104.1221.2207.2441.3374.3594Z" fill="none"></path><path d="M19.9275,35.3311c2.0241-1.6321,4.8937-2.5854,7.978-2.5854.9904,0,1.9733.1161,2.9241.3194.1003-.0811.2106-.1548.3083-.2374.0395-.0338.0779-.0698.1166-.1049-1.0737-.2889-2.2026-.4615-3.349-.4615-3.1995,0-6.1285,1.0865-7.978,2.9118v.158Z" fill="none"></path><path d="M10.7757,34.0465c-.5331,0-.9899.015-1.4019.0402,2.8052,1.8661,6.0276,2.9045,9.3911,3.0223-1.7615-1.9171-4.7324-3.0625-7.9892-3.0625Z" fill="none"></path><path d="M29.3435,34.1511c-.4753-.0599-.9536-.1046-1.4379-.1046-3.2624,0-6.2385,1.1489-7.9989,3.072,3.3724-.093,6.612-1.1125,9.4368-2.9674Z" fill="none"></path><path d="M19.9275,34.3521c1.9681-1.695,4.857-2.6903,7.978-2.6903,1.3312,0,2.6448.2165,3.8778.5854.071-.063.143-.1251.2115-.1909.1508-.1462.2941-.2984.4379-.4502-1.3996-.5316-2.9483-.8428-4.5273-.8428-3.1987,0-6.1277,1.0867-7.978,2.912v.6768Z" fill="none"></path><path d="M27.9056,29.3278c-3.1991,0-6.1281,1.0875-7.978,2.9129v.6135c1.9689-1.6951,4.8577-2.6905,7.978-2.6905,1.7363,0,3.4399.361,4.9645.9754.0416-.0458.0848-.093.1244-.1375l.1245-.1396c.088-.0986.1738-.1988.259-.2995-1.6207-.7864-3.532-1.2347-5.4724-1.2347Z" fill="none"></path><path d="M5.3646,30.4832c.1141.1373.2308.2731.3486.408.0377.0433.0692.0755.1048.1151,1.111-.5347,2.2911-.8427,4.9577-.8427,3.0515,0,5.8868.9481,7.8521,2.5752v-.6223c-1.8561-1.7507-4.7255-2.7889-7.8521-2.7889-3.1072,0-4.0492.4087-5.4111,1.1555Z" fill="none"></path><path d="M19.4036,1.3248C9.4349,1.3248,1.325,9.3581,1.325,19.2321c0,3.876,1.2544,7.5801,3.627,10.7129l.0429.0575c1.4467-.7968,2.463-1.2743,5.7808-1.2743,2.1243,0,4.144.4604,5.8395,1.2878l.4584-.8627c0-.1248.063-.3744,0-.5616v-.1872c-.063-.3744-.2519-.8112-.4408-1.1856-1.1336-2.0591-3.4007-3.4942-5.6679-4.0558-.3148-.0624-1.8892-.312-2.0152-.4368v-.1872c.189-.1871,1.3855-.0624,1.7004-.0624-.7997-.6705-1.6567-1.4026-2.4005-2.1923.0555.1088.0866.2179.0607.3198-.1006.4014-.7798.5879-1.0054.6201-.2598.083-.5107.1172-.7485.1172-.6323,0-1.1748-.2422-1.5664-.4541-.0933-.0459-.7163-.4961-.8105-.7798-.021-.063-.0166-.1797.0132-.2393.021-.0415.0532-.0762.0928-.1006,1.0327-.6294,2.0996-.7441,3.0063-.3262.0699.0225.2949.1582.5168.3402-.2666-.33-.5592-.7217-.5592-.7993-.063-.0624.063-.1248.063-.1248h.1259c.189.1248.9446.9984,1.1965,1.1855.9446.8736,2.1412,1.7472,3.2118,2.4335,1.8893,1.1856,3.7156,1.872,5.29,3.5567.1259.1248.2519.312.3778.4368,0-.8112.189-1.6848,0-2.4959-.2519-1.0608-1.1335-2.2463-1.7633-3.1199-.2519-.3744-1.0706-1.4351-1.3225-1.6223-.6297-.4992-2.2041-.936-3.0228-1.3104-.9447-.4367-1.9523-1.3103-2.582-2.1839-.2519-.312-.5668-.7487-.6298-1.1231.063-.1248.1889,0,.1889,0,.189.1872.3149.4368.5038.624,1.3224,1.4351,2.7709,2.3087,4.6602,2.7454-1.0077-1.5599-1.8263-3.307-2.2672-5.1166-.0629-.2495-.4408-1.6848-.3149-1.8095h.189c.063.0624.4408,1.56.5668,1.8095.5038,1.3728,1.1965,2.683,2.0152,3.9311l.1259-1.3104c.063-.2496.189-1.3727.3779-1.3727.1259-.0624.1889,0,.1889.0624.063.1248-.1259,1.3727-.1259,1.6847,0,.5616.1888,1.7472.4408,2.1839l3.5266,3.9935c.126-1.9968.189-4.0559.4409-6.115.0629-.3745.2519-.9984.2519-1.3103,0-.0624-.6298-1.248-.7557-1.56-.5038-1.4351-.5038-3.1823-.3149-4.7422l.2519-.1248c0,1.9343.3149,3.8687,1.2595,5.5533l.5038-1.3727c.1889-.3744.3779-.8112.5668-1.1856.063-.1248.6298-1.1231.8187-.9359.1259.1248-.5668,1.2479-.6298,1.4351-1.3225,2.9951-1.2595,6.2397-.8816,9.422l.6297-1.123c.6298-.9984,1.4485-1.872,2.2671-2.7455.3149-1.872.7558-3.8063,1.4485-5.5534.1259-.2496.8187-1.8095.9446-1.8719h.189c-.189.6863-.5039,1.3103-.7558,1.9967-.5038,1.3727-.8186,2.9327-.8816,4.4302.8816-.7488,1.6374-1.6847,2.456-2.4958.0333-.033.0815-.0804.1278-.1259-.0601.0489-.1132.1035-.1793.1472-.042.0278-.0898.0415-.1377.0415-.061,0-.1221-.0225-.1699-.0664-.4756-.4404-.728-1.0781-.6919-1.7505.0386-.7168.3994-1.3955.9648-1.8159.1011-.0762.2437-.0635.3311.0293.5181.5498.7681,1.2734.6855,1.9854-.0505.4351-.2335.824-.5108,1.1482.1539-.1445.3067-.2806.399-.3417.063-.0624.2519-.0624.2519-.0624.126.0624-.5668.8112-.6297.936-2.645,3.3695-6.1717,6.3645-6.4236,10.9195.126.0624.189-.0623.189-.0623,1.5744-1.6224,2.2671-1.9344,4.2193-2.9951,2.582-1.3728,3.9045-3.1823,4.9751-5.803.063-.1872.5038-1.4975.5668-1.4975.126-.0624.126.0624.126.1248,0,.2496-.3149,1.3727-.4409,1.6847-.1889.5616-.4408,1.1856-.6927,1.7471-.126.3744-.3779.7488-.5668,1.1232.6927-.4368,1.4485-.8112,2.2671-.936.0359,0,.1502-.0367.2449-.0485.0006-.0059.007-.0078.007-.0139l.0248.0123c.0554-.0024.1011.005.1011.05l-.1011-.05c-.0106.0004-.0204.0002-.0319.0016-.0114.1127-.122.1733-.1819.1733-.3778.1248-.6927.2496-1.0706.4368-1.7003.936-2.9598,2.4335-4.5342,3.4319h.1259c1.1336.0624,2.0782.0624,3.2118.3119.1889,0,.9446.1248.5668.4368-.126.1248-1.1966-.0624-1.4485-.0624-1.5114-.0624-3.0228,0-4.4083.7488-1.0706.624-1.8263,1.3727-2.2671,2.3087-.5038.8736-.6298,1.8719-.5038,2.8079v.312c0,.2496.1259.4991.2519.6863l.5557.734c1.8395-1.0954,4.1583-1.7206,6.6237-1.7206,2.0737,0,4.1219.4872,5.8462,1.347,2.4353-3.1494,3.731-6.8877,3.731-10.8431C37.4827,9.3581,29.3724,1.3248,19.4036,1.3248ZM12.3509,24.1608h1.0073c.0688,0,.1348.0283.1821.0781.0469.0508.0713.1182.0674.1865-.0698,1.1729-.9575,2.3154-2.0649,2.6582-.4956.1533-.7808.2227-.9736.2227-.1055,0-.1831-.0215-.2524-.0596-.1606-.0908-.2017-.2529-.2236-.3408-.0962-.3809.374-1.3604.4756-1.5117.2744-.4766,1.1714-1.2334,1.7822-1.2334ZM10.5428,23.6129c.1079.0371.1768.1426.1675.2568-.0669.8291-.4849,1.5703-1.147,2.0322-.4517.3154-.9888.4785-1.542.4785-.2573,0-.5186-.0352-.7759-.1064-.1162-.0322-.1929-.1436-.1821-.2627.0708-.8086.5723-1.6074,1.3086-2.0859.6777-.4395,1.4688-.5537,2.1709-.3125ZM4.6424,23.1579c.5024-.8291,1.2324-1.373,2.0024-1.4902.0049-.001.0103-.002.0156-.002.9741-.0879,1.6758.1006,2.1504.5713.0806.0801.0972.2041.0405.3027-.3994.6914-1.0713,1.1934-1.8438,1.376-.2207.0518-.4438.0771-.6655.0771-.5679,0-1.1279-.1689-1.6235-.4961-.1123-.0742-.1455-.2236-.0762-.3389ZM22.0726,4.9611c.4131-.5781,1.0801-.9707,1.8306-1.0767.0723-.0107.144.0112.1992.0586.0547.0479.0859.1167.0859.189v.936c0,.0649,0,.1855-.3418.8613-.0049.0093-.0098.0181-.0156.0269-.3691.5483-.9614.8794-1.8638,1.0425-.0151.0024-.0298.0039-.0449.0039-.1177,0-.2222-.0835-.2451-.2031-.1255-.6533.0151-1.3062.3955-1.8384ZM15.2171,4.3239c.063-.1143.2036-.1606.3228-.1074,1.6128.7319,2.4385,2.4834,1.9634,4.1641-.0312.1104-.1313.1821-.2407.1821-.021,0-.043-.0029-.0645-.0083-.9077-.2422-1.6772-.9194-2.0596-1.8105-.3472-.811-.3188-1.6934.0786-2.4199ZM17.5022,10.8795c-.0317.1069-.1299.1787-.2397.1787-.0088,0-.0181-.0005-.0273-.0015-.6523-.0718-1.2451-.4326-1.5854-.9653-.3213-.5034-.3916-1.0967-.1982-1.6714.0396-.1167.1572-.1885.2798-.1665.6304.1099,1.2075.4995,1.5435,1.0425.3042.4907.3848,1.0532.2275,1.5835ZM12.3592,5.1339c.0161-.0659.0581-.123.1167-.1572.0596-.0347.1294-.0435.1948-.0249.4512.1284,1.0166.3311,1.3828.7661.5444.5386.8257,1.4307.6841,2.2026-.0225.1201-.127.2051-.2456.2051-.0117,0-.0234-.001-.0356-.0024-.7256-.1025-1.3672-.4927-1.7598-1.0698-.3804-.5596-.5005-1.2412-.3374-1.9194ZM7.1443,18.8434c-.3442.123-.7041.1836-1.063.1836-.4966,0-.9907-.1167-1.4365-.3467-.7627-.3936-1.3096-1.0596-1.5405-1.8765-.021-.0752-.0059-.1562.0415-.2188.0469-.0625.1211-.0991.1992-.0991.1162,0,.248-.0396.4004-.085.1157-.0347.2378-.0708.3696-.0972,1.5366-.145,2.8574.8013,3.189,2.2485.0283.1235-.0405.2485-.1597.291ZM13.4441,20.005c.0537-.123.1958-.1821.3213-.1318,1.0298.4077,1.7827,1.3687,1.9189,2.4478.1191.9443.0229,1.2021-.0991,1.3408-.0718.0811-.1689.126-.2749.126-.0234,0-.0469-.0029-.0693-.0098-.7993-.2314-1.4512-.7764-1.7881-1.4961-.3354-.7168-.3384-1.5254-.0088-2.2769ZM10.4944,18.2374c.064-.1162.2085-.1602.3252-.105.6777.3198,1.1807.8716,1.415,1.5537.2412.7012.1826,1.4668-.1646,2.1543-.0435.0859-.1309.1377-.2231.1377-.0239,0-.0483-.0039-.0723-.0107-.6768-.2041-1.1948-.6758-1.459-1.3262-.3052-.7529-.2388-1.6519.1787-2.4038ZM9.4495,18.1422c-.0005.0083-.1196,1.2148-.6255,1.2148-.3813,0-1.0425-.7891-1.0894-.8589-.0015-.0024-.0034-.0054-.0049-.0078-.4674-.7532-.4792-1.6297-.0634-2.5403-.2844.0953-.5745.1599-.8678.1599-.3394,0-.6792-.0645-1.0054-.1929-.7798-.3081-1.4126-.9541-1.7358-1.7725-.0244-.062-.0234-.1309.0034-.1919s.0767-.1089.1387-.1328c1.5752-.6138,3.2944.1362,3.9126,1.7012.0275.0699.0147.1403-.0175.2025.9484.4314,1.4933,1.3932,1.3549,2.4186ZM8.5813,13.7306c-.2183.0659-.4429.0981-.6685.0981-.5122,0-1.0283-.167-1.481-.4888-.7134-.5068-1.1602-1.3096-1.1958-2.1465-.0024-.0684.0225-.1348.0693-.1836.0474-.0493.1123-.0771.1807-.0771h.8818c1.1743.1431,2.3213,1.3784,2.3906,2.5439.0068.1152-.0664.2207-.1772.2539ZM7.6316,10.4059l-.0432-.4276c-.0244-.0242-.0505-.0475-.0627-.0803-.0347-.0918-.0186-.1963.0513-.2651l.063-.0625c.0684-.0679.1709-.0898.2607-.0581.04.0144.072.0414.0992.0719,1.4248.1069,2.579,1.1038,2.8334,2.4896l.0039.5439c0,.1338-.105.2437-.2388.2495-.0474.0024-.0942.0034-.1406.0034-1.4497,0-2.627-1.0171-2.8262-2.4648ZM12.097,16.0495c0,.1382-.1118.25-.25.25-.77,0-1.4932-.3081-1.9829-.8452-.4463-.4888-.6577-1.1274-.5962-1.7988.0117-.1284.1196-.2271.249-.2271,1.3745,0,2.5801,1.2246,2.5801,2.6211ZM11.2688,10.4396c-.0117.042-.0342.0801-.0654.1104l-.063.062c-.0469.0459-.1099.0718-.1753.0718-.3833,0-1.0073-.4214-1.3457-.6729-.0029-.0024-.0063-.0054-.0098-.0078-.3774-.3115-1.0986-1.3096-1.0986-1.9399v-1.061c0-.0835.0415-.1597.1084-.2061.0581-.0845.1616-.124.2646-.0991.8848.2192,1.6484.7866,2.0957,1.5566.3936.6772.4961,1.4536.2891,2.186ZM13.5218,11.2741c-.0552.1064-.1025.1982-.1025.2832,0,.1011-.0605.1919-.1538.231-.0312.0127-.064.019-.0962.019-.0645,0-.1284-.0249-.1763-.0728l-.0029-.0029c-.1743-.0688-.4165-.2876-.8159-.6836-.7793-.9795-.7793-2.3701-.0195-3.3276.0835-.1055.2344-.1255.3428-.0469,1.104.8022,1.5493,2.0566,1.1621,3.2729-.0293.1177-.0869.229-.1377.3276ZM14.6175,13.8664c-.0703,0-.1401-.0298-.189-.0864-.8726-1.0088-.9956-2.186-.3374-3.2295.3286-.521.4893-.7236.6113-.8018.0449-.0405.104-.064.167-.064.334,0,.7446.7959.79.8867.4995,1.1992.1367,2.4976-.895,3.2471-.0444.0322-.0957.0479-.147.0479ZM15.1844,16.2374c-.105,0-.2021-.0664-.2368-.1704-.27-.8022-.1499-1.7246.3223-2.4673.4619-.7271,1.2007-1.1982,2.0273-1.293.1221-.0117.2451.0698.2725.1948.3555,1.6206-.709,3.3281-2.3252,3.7285-.02.0049-.04.0073-.0601.0073ZM18.2884,17.7121c-.1577.8887-.7422,1.6138-1.5635,1.9395-.0303.0117-.0615.0176-.0923.0176-.0869,0-.1709-.0459-.2163-.125-.7671-1.3286-.748-3.1987.7715-4.2021.0942-.063.2183-.0532.3042.022.6558.585.9536,1.4624.7964,2.3481ZM18.3333,8.1256c-.084,0-.165-.0425-.2124-.1182-.4321-.6958-.5518-1.4995-.3452-2.3242.2554-1.02.9819-1.9609,1.9438-2.5166.1123-.0654.2603-.0327.3335.0786.4731.7173.6045,1.5503.3799,2.4097-.2651,1.0127-1.0259,1.9487-1.9854,2.4429-.0361.019-.0757.0278-.1143.0278ZM22.221,17.258c-.1865.5166-.2695.7476-.4653.7476-.0254,0-.0532-.0039-.0835-.0122-.0288-.0073-.0903-.0298-.1362-.0889-.4619-.1543-1.0103-.894-1.0171-.9038-.4165-.687-.4966-1.5825-.2163-2.3472.2744-.748.3018-.8247.5293-.7856.0332.0059.0635.0181.0908.0356.2588.1172.668.4673.6724.4717.7339.7266.9854,1.8853.626,2.8828ZM23.2137,13.298c-.2681.4009-.7314,1.0063-1.0894,1.0063-.0312,0-.0615-.0044-.0908-.0142-.3154-.1035-.5664-.7529-.6069-.9932-.1919-.6543-.0859-1.4619.2783-2.1118,0,0,0-.0005.0005-.0005.1426-.2549.644-1.0693,1.0845-.8501.0371.0186.0693.0464.0938.0811.7153,1.0234.8232,1.9663.3301,2.8823ZM23.8309,9.1266c-.4849.6001-1.2417.9854-2.0757,1.0571-.0073.0005-.0146.001-.022.001-.124,0-.231-.0923-.2476-.2173-.0262-.1992-.0214-.397-.0002-.5928-.0222.0303-.0375.0638-.0613.0933-.4131.5117-.5332.6611-.6597.6611-.0376,0-.0752-.0132-.1216-.0337-.0845-.0376-.1777-.126-.1445-.3315.001-.0049.002-.0083.0029-.0107-.0734-.0742-.1349-.1666-.1967-.2582.1497.3791.207.7985.1312,1.2182-.1206.6665-.5249,1.2153-1.1099,1.5049-.0352.0176-.0732.0259-.1108.0259-.0771,0-.1523-.0356-.2012-.1011-.3989-.5396-.5601-1.2183-.4414-1.8628.1133-.6162.4722-1.146,1.0112-1.4917.1011-.0645.2349-.0488.3174.0396.0742.0792.1301.1718.1904.2611-.135-.3361-.2136-.7208-.2056-1.1239.0122-.6108.2021-1.1475.5278-1.5073-.0005-.0112-.0005-.0229,0-.0347.0054-.0728.042-.1396.1001-.1831.3179-.2363.4097-.2363.4644-.2363.0659,0,.1294.0259.1758.0723.5899.5845.8571,1.3658.7872,2.111.0333-.0477.0579-.0992.0947-.1451.5015-.627,1.2554-1.0283,2.0684-1.1016.1313-.0029.2534.084.2705.2178.0923.7334-.0957,1.4141-.5439,1.9688ZM25.2098,9.2995c-.0249.0078-.0503.0117-.0752.0117-.0952,0-.1855-.0547-.2271-.1455-.3667-.7988-.3857-1.6958-.0527-2.4604.2998-.6885.8638-1.1992,1.5869-1.438.1201-.04.2456.0142.3018.1245.3545.7036.3633,1.604.0234,2.4102-.3115.7383-.8789,1.2842-1.5571,1.4976ZM26.6463,10.1847c-.1343,0-.2446-.106-.25-.2402-.0605-1.5679.9819-2.6899,2.7896-3.002.0723-.0137.1475.0073.2036.0552s.0889.1177.0889.1914c0,1.7358-1.1909,2.9956-2.832,2.9956ZM25.1258,20.0377c-.4043.7051-1.1138,1.2275-1.9463,1.4336-.0195.0059-.04.0078-.0601.0078-.0464,0-.0918-.0127-.1318-.0381-.0576-.0352-.0977-.0928-.1123-.1582-.189-.8613-.0181-1.791.4575-2.4878.4209-.6172,1.0303-1.0044,1.7627-1.1206.125-.0205.2432.0562.2788.1763.2197.7471.1318,1.5234-.2485,2.187ZM28.1556,17.4225c0,.0649,0,.1855-.3418.8613-.3735.667-1.0195.9346-1.6631,1.1255-.0239.0068-.0479.0103-.0713.0103-.105,0-.2021-.0664-.2368-.1704-.2271-.6743-.1455-1.4048.2236-2.0029.3804-.6167,1.0151-1.0293,1.7412-1.1318.0752-.0083.1553.0146.2104.0693l.063.062c.0479.0469.0747.1113.0747.1782v.9985ZM28.0677,15.7492c-.3906.1992-.8174.3003-1.2397.3003-.2832,0-.564-.0454-.8306-.1377-.1245-.0435-.1938-.1758-.1592-.3027.1826-.6636.5854-1.1865,1.165-1.5132.6392-.3604,1.4521-.4409,2.23-.2212.0649.0186.1191.062.1514.1206.0322.0591.0396.1284.02.1924-.2002.6611-.6875,1.2305-1.3369,1.5615ZM27.4021,12.8053c-.1343,0-.2446-.1064-.25-.2407-.0332-.8975.2778-1.7334.876-2.3545.5977-.6201,1.4263-.9619,2.3335-.9619.1279,0,.2354.0967.2485.2241.0913.8706-.1606,1.6851-.708,2.293-.5957.6611-1.5068,1.04-2.5,1.04ZM29.9236,13.4845c-.1255-.0312-.2065-.1523-.187-.2803.2075-1.3711,1.0566-2.3081,2.3911-2.6387.5815-.144.8408-.1914.9766-.1118.0088.0034.0176.0078.0259.0127.0723.041.1191.1152.1255.1978.0654.8374-.2866,1.6465-.9648,2.2212-.5151.4365-1.1499.6704-1.7773.6704-.1987,0-.3965-.0234-.5898-.0713ZM30.4954,15.7706c-.1118-.0601-.1611-.1943-.1143-.312.6011-1.5229,2.3008-2.3125,3.9546-1.833.064.0186.1177.0615.1499.1201.0317.0581.0396.127.0205.1909-.2563.8706-.9038,1.5972-1.7314,1.9429-.3369.1406-.6851.2109-1.0312.2109-.4272,0-.8521-.1069-1.248-.3198ZM31.9891,26.1305c-.0366.0186-.0762.0283-.1157.0283-.0596,0-.1187-.0215-.1655-.0625h-.9053c-.1455,0-.8965-.3506-.9946-.4473-.5063-.3281-.9126-1-1.0767-1.8125-.0132-.0664.0005-.1357.0391-.1914.0381-.0557.0972-.0938.1636-.1045,1.5566-.2744,2.9019.708,3.1855,2.3252.019.1074-.0337.2139-.1304.2646ZM33.5223,23.0758c-.0547.0293-.1196.0635-.189.1094-.4795.2852-1.0034.4268-1.5308.4268-.6035,0-1.2124-.1855-1.7676-.5518q-.7305-.4824-.6353-.6875c.0164-.036.0499-.0588.0831-.0811-.2187.0764-.4404.123-.6573.123-.3027,0-.5957-.0732-.854-.2197-.1074-.0605-.1543-.1914-.1108-.3066.2217-.585.6343-1.0215,1.1616-1.2285.499-.1953,1.0576-.1621,1.5762.0957.1069.0527.1616.1738.1304.2891-.0909.3373-.3065.6382-.5927.8771.4142-.2271.9069-.4167.9843-.4357l.0898-.0059c.8306-.1465,1.7646.1143,2.2871.6318.2568.2539.3813.4189.3525.6143-.0283.1914-.187.2754-.3276.3496ZM33.8069,20.1642c-.5117.4771-1.1851.7378-1.8838.7378-.1006,0-.2017-.0049-.3032-.0166-.7554-.082-1.4268-.4736-1.8418-1.0747-.0752-.1084-.0527-.2563.0503-.3379.353-.2798.8828-.604,1.311-.6748.0107-.002.0586-.0029.0859-.0034,1.0879-.1387,2.0903.2617,2.6187,1.0469.0684.1021.0527.2388-.0371.3228ZM33.9793,18.3156c-.415.2251-.9072.3384-1.4126.3384-.4336,0-.877-.0835-1.291-.2515-.126-.0508-.188-.1929-.1401-.3198.5522-1.4604,2.0537-2.1094,3.8232-1.6514.1279.0332.208.1602.1831.29-.1372.7046-.5391,1.2559-1.1626,1.5942Z" fill="none"></path><path d="M29.7388,22.1818c-.0391.0196-.0735.0451-.1141.0624.0168-.0015.0313-.01.0485-.0092.0182-.0176.0443-.0355.0657-.0532Z" fill="none"></path><path d="M20.4329,5.6549c.2246-.8594.0933-1.6924-.3799-2.4097-.0732-.1113-.2212-.144-.3335-.0786-.9619.5557-1.6885,1.4966-1.9438,2.5166-.2065.8247-.0869,1.6284.3452,2.3242.0474.0757.1284.1182.2124.1182.0386,0,.0781-.0088.1143-.0278.9595-.4941,1.7202-1.4302,1.9854-2.4429Z" fill="#f58345"></path><path d="M30.6102,9.4723c-.0132-.1274-.1206-.2241-.2485-.2241-.9072,0-1.7358.3418-2.3335.9619-.5981.6211-.9092,1.457-.876,2.3545.0054.1343.1157.2407.25.2407.9932,0,1.9043-.3789,2.5-1.04.5474-.6079.7993-1.4224.708-2.293Z" fill="#f58345"></path><path d="M17.198,8.5543c.0215.0054.0435.0083.0645.0083.1094,0,.2095-.0718.2407-.1821.4751-1.6807-.3506-3.4321-1.9634-4.1641-.1191-.0532-.2598-.0068-.3228.1074-.3975.7266-.4258,1.6089-.0786,2.4199.3823.8911,1.1519,1.5684,2.0596,1.8105Z" fill="#f58345"></path><path d="M4.115,16.3039c-.1318.0264-.2539.0625-.3696.0972-.1523.0454-.2842.085-.4004.085-.0781,0-.1523.0366-.1992.0991-.0474.0625-.0625.1436-.0415.2188.231.8169.7778,1.4829,1.5405,1.8765.4458.23.9399.3467,1.4365.3467.3589,0,.7188-.0605,1.063-.1836.1191-.0425.188-.1675.1597-.291-.3315-1.4473-1.6523-2.3936-3.189-2.2485Z" fill="#f58345"></path><path d="M17.1878,15.3419c-1.5195,1.0034-1.5386,2.8735-.7715,4.2021.0454.0791.1294.125.2163.125.0308,0,.062-.0059.0923-.0176.8213-.3257,1.4058-1.0508,1.5635-1.9395.1572-.8857-.1406-1.7632-.7964-2.3481-.0859-.0752-.21-.085-.3042-.022Z" fill="#f58345"></path><path d="M8.8841,6.6969c-.103-.0249-.2065.0146-.2646.0991-.0669.0464-.1084.1226-.1084.2061v1.061c0,.6304.7212,1.6284,1.0986,1.9399.0034.0024.0068.0054.0098.0078.3384.2515.9624.6729,1.3457.6729.0654,0,.1284-.0259.1753-.0718l.063-.062c.0312-.0303.0537-.0684.0654-.1104.207-.7324.1045-1.5088-.2891-2.186-.4473-.77-1.2109-1.3374-2.0957-1.5566Z" fill="#f58345"></path><path d="M32.7747,15.8795c.8276-.3457,1.4751-1.0723,1.7314-1.9429.019-.064.0112-.1328-.0205-.1909-.0322-.0586-.0859-.1016-.1499-.1201-1.6538-.4795-3.3535.3101-3.9546,1.833-.0469.1177.0024.252.1143.312.396.2129.8208.3198,1.248.3198.3462,0,.6943-.0703,1.0312-.2109Z" fill="#f58345"></path><path d="M17.5696,12.5016c-.0273-.125-.1504-.2065-.2725-.1948-.8267.0947-1.5654.5659-2.0273,1.293-.4722.7427-.5923,1.665-.3223,2.4673.0347.104.1318.1704.2368.1704.02,0,.04-.0024.0601-.0073,1.6162-.4004,2.6807-2.1079,2.3252-3.7285Z" fill="#f58345"></path><path d="M7.0633,26.0114c-.0107.1191.0659.2305.1821.2627.2573.0713.5186.1064.7759.1064.5532,0,1.0903-.1631,1.542-.4785.6621-.4619,1.0801-1.2031,1.147-2.0322.0093-.1143-.0596-.2197-.1675-.2568-.7021-.2412-1.4932-.127-2.1709.3125-.7363.4785-1.2378,1.2773-1.3086,2.0859Z" fill="#f58345"></path><path d="M10.5984,12.8673c.1338-.0059.2388-.1157.2388-.2495l-.0039-.5439c-.2544-1.3859-1.4086-2.3827-2.8334-2.4896-.0272-.0305-.0592-.0575-.0992-.0719-.0898-.0317-.1924-.0098-.2607.0581l-.063.0625c-.0698.0688-.0859.1733-.0513.2651.0123.0327.0384.056.0627.0803l.0432.4276c.1992,1.4478,1.3765,2.4648,2.8262,2.4648.0464,0,.0933-.001.1406-.0034Z" fill="#f58345"></path><path d="M32.2908,12.8854c.6782-.5747,1.0303-1.3838.9648-2.2212-.0063-.0825-.0532-.1567-.1255-.1978-.0083-.0049-.0171-.0093-.0259-.0127-.1357-.0796-.395-.0322-.9766.1118-1.3345.3306-2.1836,1.2676-2.3911,2.6387-.0195.1279.0615.249.187.2803.1934.0479.3911.0713.5898.0713.6274,0,1.2622-.2339,1.7773-.6704Z" fill="#f58345"></path><path d="M10.0931,26.9059c.022.0879.063.25.2236.3408.0693.0381.147.0596.2524.0596.1929,0,.478-.0693.9736-.2227,1.1074-.3428,1.9951-1.4854,2.0649-2.6582.0039-.0684-.0205-.1357-.0674-.1865-.0474-.0498-.1133-.0781-.1821-.0781h-1.0073c-.6108,0-1.5078.7568-1.7822,1.2334-.1016.1514-.5718,1.1309-.4756,1.5117Z" fill="#f58345"></path><path d="M6.3421,23.9928c.2217,0,.4448-.0254.6655-.0771.7725-.1826,1.4443-.6846,1.8438-1.376.0566-.0986.04-.2227-.0405-.3027-.4746-.4707-1.1763-.6592-2.1504-.5713-.0054,0-.0107.001-.0156.002-.77.1172-1.5.6611-2.0024,1.4902-.0693.1152-.0361.2646.0762.3389.4956.3271,1.0557.4961,1.6235.4961Z" fill="#f58345"></path><path d="M26.7435,5.3917c-.0562-.1104-.1816-.1646-.3018-.1245-.7231.2388-1.2871.7495-1.5869,1.438-.333.7646-.314,1.6616.0527,2.4604.0415.0908.1318.1455.2271.1455.0249,0,.0503-.0039.0752-.0117.6782-.2134,1.2456-.7593,1.5571-1.4976.3398-.8062.3311-1.7065-.0234-2.4102Z" fill="#f58345"></path><path d="M8.1121,15.5211c-.6182-1.5649-2.3374-2.3149-3.9126-1.7012-.062.0239-.1118.0718-.1387.1328s-.0278.1299-.0034.1919c.3232.8184.9561,1.4644,1.7358,1.7725.3262.1284.666.1929,1.0054.1929.2933,0,.5834-.0646.8678-.1599-.4159.9106-.4041,1.7871.0634,2.5403.0015.0024.0034.0054.0049.0078.0469.0698.708.8589,1.0894.8589.5059,0,.625-1.2065.6255-1.2148.1384-1.0254-.4065-1.9872-1.3549-2.4186.0322-.0621.045-.1326.0175-.2025Z" fill="#f58345"></path><path d="M20.9227,13.9035c-.0273-.0176-.0576-.0298-.0908-.0356-.2275-.0391-.2549.0376-.5293.7856-.2803.7646-.2002,1.6602.2163,2.3472.0068.0098.5552.7495,1.0171.9038.0459.0591.1074.0815.1362.0889.0303.0083.0581.0122.0835.0122.1958,0,.2788-.231.4653-.7476.3594-.9976.1079-2.1562-.626-2.8828-.0044-.0044-.4136-.3545-.6724-.4717Z" fill="#f58345"></path><path d="M25.0955,17.6745c-.7324.1162-1.3418.5034-1.7627,1.1206-.4756.6968-.6465,1.6265-.4575,2.4878.0146.0654.0547.123.1123.1582.04.0254.0854.0381.1318.0381.02,0,.0405-.002.0601-.0078.8325-.2061,1.542-.7285,1.9463-1.4336.3804-.6636.4683-1.4399.2485-2.187-.0356-.1201-.1538-.1968-.2788-.1763Z" fill="#f58345"></path><path d="M34.9588,16.4313c-1.7695-.458-3.271.1909-3.8232,1.6514-.0479.127.0142.269.1401.3198.4141.168.8574.2515,1.291.2515.5054,0,.9976-.1133,1.4126-.3384.6235-.3384,1.0254-.8896,1.1626-1.5942.0249-.1299-.0552-.2568-.1831-.29Z" fill="#f58345"></path><path d="M31.2103,21.4801l-.0898.0059c-.0774.0189-.5701.2086-.9843.4357.2862-.2389.5018-.5397.5927-.8771.0312-.1152-.0234-.2363-.1304-.2891-.5186-.2578-1.0771-.291-1.5762-.0957-.5273.207-.9399.6436-1.1616,1.2285-.0435.1152.0034.2461.1108.3066.2583.1465.5513.2197.854.2197.2169,0,.4386-.0467.6573-.123-.0331.0223-.0667.045-.0831.0811q-.0952.2051.6353.6875c.5552.3662,1.1641.5518,1.7676.5518.5273,0,1.0513-.1416,1.5308-.4268.0693-.0459.1343-.0801.189-.1094.1406-.0742.2993-.1582.3276-.3496.0288-.1953-.0957-.3604-.3525-.6143-.5225-.5176-1.4565-.7783-2.2871-.6318ZM29.7388,22.1818c-.0214.0178-.0474.0356-.0657.0532-.0172-.0009-.0316.0077-.0485.0092.0406-.0173.0751-.0428.1141-.0624Z" fill="#f58345"></path><path d="M15.241,23.778c.0225.0068.0459.0098.0693.0098.106,0,.2031-.0449.2749-.126.1221-.1387.2183-.3965.0991-1.3408-.1362-1.0791-.8892-2.04-1.9189-2.4478-.1255-.0503-.2676.0088-.3213.1318-.3296.7515-.3267,1.5601.0088,2.2769.3369.7197.9888,1.2646,1.7881,1.4961Z" fill="#f58345"></path><path d="M15.6595,10.5714c-.0454-.0908-.4561-.8867-.79-.8867-.063,0-.1221.0234-.167.064-.1221.0781-.2827.2808-.6113.8018-.6582,1.0435-.5352,2.2207.3374,3.2295.0488.0566.1187.0864.189.0864.0513,0,.1025-.0156.147-.0479,1.0317-.7495,1.3945-2.0479.895-3.2471Z" fill="#f58345"></path><path d="M6.368,10.9328h-.8818c-.0684,0-.1333.0278-.1807.0771-.0469.0488-.0718.1152-.0693.1836.0356.8369.4824,1.6396,1.1958,2.1465.4526.3218.9688.4888,1.481.4888.2256,0,.4502-.0322.6685-.0981.1108-.0332.1841-.1387.1772-.2539-.0693-1.1655-1.2163-2.4009-2.3906-2.5439Z" fill="#f58345"></path><path d="M31.2254,18.7946c-.0273.0005-.0752.0015-.0859.0034-.4282.0708-.958.395-1.311.6748-.103.0815-.1255.2295-.0503.3379.415.6011,1.0864.9927,1.8418,1.0747.1016.0117.2026.0166.3032.0166.6987,0,1.3721-.2607,1.8838-.7378.0898-.084.1055-.2207.0371-.3228-.5283-.7852-1.5308-1.1855-2.6187-1.0469Z" fill="#f58345"></path><path d="M12.4974,7.6735c-.1084-.0786-.2593-.0586-.3428.0469-.7598.9575-.7598,2.3481.0195,3.3276.3994.396.6416.6147.8159.6836l.0029.0029c.0479.0479.1118.0728.1763.0728.0322,0,.0649-.0063.0962-.019.0933-.0391.1538-.1299.1538-.231,0-.085.0474-.1768.1025-.2832.0508-.0986.1084-.21.1377-.3276.3872-1.2163-.0581-2.4707-1.1621-3.2729Z" fill="#f58345"></path><path d="M4.2854,19.7677c-.0396.0244-.0718.0591-.0928.1006-.0298.0596-.0342.1763-.0132.2393.0942.2837.7173.7339.8105.7798.3916.2119.9341.4541,1.5664.4541.2378,0,.4888-.0342.7485-.1172.2256-.0322.9048-.2188,1.0054-.6201.0259-.1019-.0052-.211-.0607-.3198-.0176-.0187-.0381-.0353-.0556-.054-.0714-.0707-.2236-.2483-.3854-.4485-.2219-.182-.4468-.3177-.5168-.3402-.9067-.418-1.9736-.3032-3.0063.3262Z" fill="#f58345"></path><path d="M29.4783,7.1891c0-.0737-.0327-.1436-.0889-.1914s-.1313-.0688-.2036-.0552c-1.8076.312-2.8501,1.4341-2.7896,3.002.0054.1343.1157.2402.25.2402,1.6411,0,2.832-1.2598,2.832-2.9956Z" fill="#f58345"></path><path d="M22.7898,10.3346c-.4404-.2192-.9419.5952-1.0845.8501-.0005,0-.0005.0005-.0005.0005-.3643.6499-.4702,1.4575-.2783,2.1118.0405.2402.2915.8896.6069.9932.0293.0098.0596.0142.0908.0142.3579,0,.8213-.6055,1.0894-1.0063.4932-.916.3853-1.8589-.3301-2.8823-.0244-.0347-.0566-.0625-.0938-.0811Z" fill="#f58345"></path><path d="M11.7747,21.9674c.0239.0068.0483.0107.0723.0107.0923,0,.1797-.0518.2231-.1377.3472-.6875.4058-1.4531.1646-2.1543-.2344-.6821-.7373-1.2339-1.415-1.5537-.1167-.0552-.2612-.0112-.3252.105-.4175.752-.4839,1.6509-.1787,2.4038.2642.6504.7822,1.1221,1.459,1.3262Z" fill="#f58345"></path><path d="M24.1043,6.9401c-.813.0732-1.5669.4746-2.0684,1.1016-.0367.046-.0613.0975-.0947.1451.0699-.7452-.1973-1.5265-.7872-2.111-.0464-.0464-.1099-.0723-.1758-.0723-.0547,0-.1465,0-.4644.2363-.0581.0435-.0947.1104-.1001.1831-.0005.0117-.0005.0234,0,.0347-.3257.3599-.5156.8965-.5278,1.5073-.008.4031.0706.7878.2056,1.1239-.0604-.0894-.1163-.1819-.1904-.2611-.0825-.0884-.2163-.104-.3174-.0396-.5391.3457-.8979.8755-1.0112,1.4917-.1187.6445.0425,1.3232.4414,1.8628.0488.0654.124.1011.2012.1011.0376,0,.0757-.0083.1108-.0259.585-.2896.9893-.8384,1.1099-1.5049.0757-.4197.0185-.8391-.1312-1.2182.0617.0917.1233.1841.1967.2582-.001.0024-.002.0059-.0029.0107-.0332.2056.0601.2939.1445.3315.0464.0205.084.0337.1216.0337.1265,0,.2466-.1494.6597-.6611.0238-.0295.0391-.0629.0613-.0933-.0211.1957-.026.3936.0002.5928.0166.125.1235.2173.2476.2173.0073,0,.0146-.0005.022-.001.834-.0718,1.5908-.457,2.0757-1.0571.4482-.5547.6362-1.2354.5439-1.9688-.0171-.1338-.1392-.2207-.2705-.2178Z" fill="#f58345"></path><path d="M28.9339,23.5407c-.0664.0107-.1255.0488-.1636.1045-.0386.0557-.0522.125-.0391.1914.1641.8125.5703,1.4844,1.0767,1.8125.0981.0967.8491.4473.9946.4473h.9053c.0469.041.106.0625.1655.0625.0396,0,.0791-.0098.1157-.0283.0967-.0508.1494-.1572.1304-.2646-.2837-1.6172-1.6289-2.5996-3.1855-2.3252Z" fill="#f58345"></path><path d="M29.2332,13.8747c-.7778-.2197-1.5908-.1392-2.23.2212-.5796.3267-.9824.8496-1.165,1.5132-.0347.127.0347.2593.1592.3027.2666.0923.5474.1377.8306.1377.4224,0,.8491-.1011,1.2397-.3003.6494-.3311,1.1367-.9004,1.3369-1.5615.0195-.064.0122-.1333-.02-.1924-.0322-.0586-.0864-.1021-.1514-.1206Z" fill="#f58345"></path><path d="M28.0179,16.1837c-.0552-.0547-.1353-.0776-.2104-.0693-.7261.1025-1.3608.5151-1.7412,1.1318-.3691.5981-.4507,1.3286-.2236,2.0029.0347.104.1318.1704.2368.1704.0234,0,.0474-.0034.0713-.0103.6436-.1909,1.2896-.4585,1.6631-1.1255.3418-.6758.3418-.7964.3418-.8613v-.9985c0-.0669-.0269-.1313-.0747-.1782l-.063-.062Z" fill="#f58345"></path><path d="M21.9222,7.0026c.0151,0,.0298-.0015.0449-.0039.9023-.1631,1.4946-.4941,1.8638-1.0425.0059-.0088.0107-.0176.0156-.0269.3418-.6758.3418-.7964.3418-.8613v-.936c0-.0723-.0312-.1411-.0859-.189-.0552-.0474-.127-.0693-.1992-.0586-.7505.106-1.4175.4985-1.8306,1.0767-.3804.5322-.521,1.1851-.3955,1.8384.0229.1196.1274.2031.2451.2031Z" fill="#f58345"></path><path d="M9.2679,13.6554c-.0615.6714.1499,1.3101.5962,1.7988.4897.5371,1.2129.8452,1.9829.8452.1382,0,.25-.1118.25-.25,0-1.3965-1.2056-2.6211-2.5801-2.6211-.1294,0-.2373.0986-.249.2271Z" fill="#f58345"></path><path d="M26.324,10.2003c-.0874-.0928-.23-.1055-.3311-.0293-.5654.4204-.9263,1.0991-.9648,1.8159-.0361.6724.2163,1.3101.6919,1.7505.0479.0439.1089.0664.1699.0664.0479,0,.0957-.0137.1377-.0415.0661-.0437.1191-.0983.1793-.1472.0878-.0863.1865-.1823.2919-.2812.2773-.3242.4603-.7131.5108-1.1482.0825-.7119-.1675-1.4355-.6855-1.9854Z" fill="#f58345"></path><path d="M14.4563,8.1232c.0122.0015.0239.0024.0356.0024.1187,0,.2231-.085.2456-.2051.1416-.772-.1396-1.6641-.6841-2.2026-.3662-.4351-.9316-.6377-1.3828-.7661-.0654-.0186-.1353-.0098-.1948.0249-.0586.0342-.1006.0913-.1167.1572-.1631.6782-.043,1.3599.3374,1.9194.3926.5771,1.0342.9673,1.7598,1.0698Z" fill="#f58345"></path><path d="M15.7313,8.2536c-.1226-.022-.2402.0498-.2798.1665-.1934.5747-.123,1.168.1982,1.6714.3403.5327.9331.8936,1.5854.9653.0093.001.0186.0015.0273.0015.1099,0,.208-.0718.2397-.1787.1572-.5303.0767-1.0928-.2275-1.5835-.3359-.543-.9131-.9326-1.5435-1.0425Z" fill="#f58345"></path><path d="M31.016,18.1212l.1011.05c0-.045-.0458-.0524-.1011-.05Z" fill="#4d4d4f"></path><path d="M30.9912,18.1088c0,.0062-.0064.0081-.007.0139.0115-.0014.0212-.0012.0319-.0016l-.0248-.0123Z" fill="#4d4d4f"></path><path d="M19.4036.3248C8.8836.3248.325,8.8068.325,19.2321c0,4.0957,1.3242,8.0088,3.8311,11.3174l.1289.1729c.0801.1094.1602.2178.2456.3232.1387.1709.2842.3379.4478.5244.1172.1348.2388.2656.3608.3955l.252.2734c.123.1367.2466.2725.377.4014.106.1035.2173.2012.3296.2988l.1855.165c.1279.1172.2554.2344.3862.3477.4434.3848.9175.7578,1.4097,1.1104,3.2192,2.2998,7.0078,3.5342,11.0068,3.5723l.1406.0049.0264-.002c3.9287-.0098,7.7095-1.21,10.9351-3.4717.4839-.3389.9536-.7002,1.397-1.0752.0854-.0732.168-.1484.25-.2246l.2744-.2461c.1284-.1123.2568-.2256.3799-.3447.1914-.1846.3735-.377.6177-.6348.1475-.1562.2935-.3145.4365-.4756l.1216-.1377c.127-.1416.2534-.2832.3716-.4287l.0894-.1182c2.7192-3.3848,4.1567-7.4473,4.1567-11.748C38.4827,8.8068,29.9236.3248,19.4036.3248ZM32.9944,31.0016c-.0396.0446-.0828.0917-.1244.1375-1.5246-.6144-3.2281-.9754-4.9645-.9754-3.1203,0-6.0092.9954-7.978,2.6905v-.6135c1.8499-1.8254,4.7789-2.9129,7.978-2.9129,1.9404,0,3.8517.4482,5.4724,1.2347-.0852.1007-.1711.2009-.259.2995l-.1245.1396ZM27.9056,30.7633c1.579,0,3.1277.3112,4.5273.8428-.1439.1518-.2872.304-.4379.4502-.0685.0659-.1405.1279-.2115.1909-1.233-.369-2.5466-.5854-3.8778-.5854-3.121,0-6.0099.9953-7.978,2.6903v-.6768c1.8503-1.8253,4.7794-2.912,7.978-2.912ZM27.9056,32.2614c1.1464,0,2.2753.1725,3.349.4615-.0387.0351-.0771.0712-.1166.1049-.0977.0825-.208.1562-.3083.2374-.9509-.2032-1.9337-.3194-2.9241-.3194-3.0844,0-5.9539.9532-7.978,2.5854v-.158c1.8495-1.8253,4.7786-2.9118,7.978-2.9118ZM27.9056,34.0465c.4844,0,.9626.0447,1.4379.1046-2.8248,1.8549-6.0644,2.8744-9.4368,2.9674,1.7604-1.9232,4.7365-3.072,7.9989-3.072ZM7.5242,32.6959c-.0471-.041-.0928-.0839-.139-.1254.7991-.2015,1.8135-.3091,3.3905-.3091,3.1269,0,5.9963,1.0373,7.8521,2.7878v.1749c-2.0163-1.5686-4.8334-2.4783-7.8521-2.4783-1.246,0-2.1779.0714-2.9355.199-.1025-.0848-.2166-.1627-.3159-.2488ZM10.7757,34.0465c3.2568,0,6.2277,1.1454,7.9892,3.0625-3.3634-.1178-6.5859-1.1562-9.3911-3.0223.412-.0252.8688-.0402,1.4019-.0402ZM18.6277,32.7389c-1.9653-1.6271-4.8006-2.5752-7.8521-2.5752-2.6666,0-3.8467.3079-4.9577.8427-.0356-.0396-.0671-.0718-.1048-.1151-.1177-.1349-.2345-.2707-.3486-.408,1.3619-.7468,2.3039-1.1555,5.4111-1.1555,3.1265,0,5.996,1.0381,7.8521,2.7889v.6223ZM6.2435,31.4716c1.0118-.46,2.1193-.7083,4.5322-.7083,3.1262,0,5.9956,1.0374,7.8521,2.788v.6854c-1.9646-1.627-4.7999-2.575-7.8521-2.575-1.8831,0-3.02.1562-3.9193.4348-.063-.0555-.1268-.1102-.1867-.1691-.1167-.1152-.2271-.2373-.3374-.3594l-.0889-.0964ZM33.7518,30.0752c-1.7242-.8598-3.7725-1.347-5.8462-1.347-2.4654,0-4.7842.6252-6.6237,1.7206l-.5557-.734c-.126-.1872-.2519-.4367-.2519-.6863v-.312c-.126-.936,0-1.9343.5038-2.8079.4408-.936,1.1965-1.6847,2.2671-2.3087,1.3856-.7488,2.8969-.8112,4.4083-.7488.2519,0,1.3225.1872,1.4485.0624.3778-.312-.3779-.4368-.5668-.4368-1.1336-.2495-2.0782-.2495-3.2118-.3119h-.1259c1.5744-.9984,2.8339-2.4959,4.5342-3.4319.3779-.1872.6928-.312,1.0706-.4368.0599,0,.1705-.0605.1819-.1733-.0947.0117-.209.0485-.2449.0485-.8186.1248-1.5743.4992-2.2671.936.1889-.3744.4408-.7488.5668-1.1232.2519-.5615.5038-1.1855.6927-1.7471.126-.312.4409-1.4351.4409-1.6847,0-.0624,0-.1872-.126-.1248-.063,0-.5038,1.3103-.5668,1.4975-1.0706,2.6207-2.3931,4.4302-4.9751,5.803-1.9522,1.0607-2.6449,1.3727-4.2193,2.9951,0,0-.063.1247-.189.0623.2519-4.555,3.7786-7.55,6.4236-10.9195.0629-.1248.7557-.8736.6297-.936,0,0-.1889,0-.2519.0624-.0923.061-.2452.1972-.399.3417-.1054.0989-.2041.1949-.2919.2812-.0463.0455-.0945.0929-.1278.1259-.8186.8112-1.5744,1.7471-2.456,2.4958.063-1.4975.3778-3.0575.8816-4.4302.2519-.6864.5668-1.3104.7558-1.9967h-.189c-.1259.0624-.8187,1.6223-.9446,1.8719-.6927,1.7471-1.1336,3.6814-1.4485,5.5534-.8186.8735-1.6373,1.7471-2.2671,2.7455l-.6297,1.123c-.3779-3.1823-.4409-6.4269.8816-9.422.063-.1872.7557-1.3103.6298-1.4351-.1889-.1873-.7557.8111-.8187.9359-.1889.3745-.3779.8112-.5668,1.1856l-.5038,1.3727c-.9446-1.6847-1.2595-3.6191-1.2595-5.5533l-.2519.1248c-.1889,1.5599-.1889,3.3071.3149,4.7422.1259.312.7557,1.4976.7557,1.56,0,.312-.189.9359-.2519,1.3103-.2519,2.0591-.3149,4.1182-.4409,6.115l-3.5266-3.9935c-.252-.4367-.4408-1.6223-.4408-2.1839,0-.312.1888-1.5599.1259-1.6847,0-.0624-.063-.1248-.1889-.0624-.1889,0-.3149,1.1231-.3779,1.3727l-.1259,1.3104c-.8187-1.248-1.5114-2.5583-2.0152-3.9311-.126-.2495-.5038-1.7471-.5668-1.8095h-.189c-.1259.1248.252,1.56.3149,1.8095.4409,1.8096,1.2595,3.5567,2.2672,5.1166-1.8893-.4367-3.3378-1.3103-4.6602-2.7454-.189-.1872-.3149-.4368-.5038-.624,0,0-.1259-.1248-.1889,0,.063.3744.3779.8111.6298,1.1231.6298.8736,1.6373,1.7472,2.582,2.1839.8187.3744,2.3931.8112,3.0228,1.3104.2519.1872,1.0706,1.2479,1.3225,1.6223.6298.8736,1.5114,2.0591,1.7633,3.1199.189.8111,0,1.6847,0,2.4959-.1259-.1248-.2519-.312-.3778-.4368-1.5744-1.6847-3.4007-2.3711-5.29-3.5567-1.0706-.6863-2.2672-1.5599-3.2118-2.4335-.2519-.1871-1.0076-1.0607-1.1965-1.1855h-.1259s-.126.0624-.063.1248c0,.0776.2926.4693.5592.7993.1618.2003.3141.3779.3854.4485.0175.0187.038.0353.0556.054.7438.7897,1.6007,1.5219,2.4005,2.1923-.3149,0-1.5114-.1247-1.7004.0624v.1872c.126.1248,1.7004.3744,2.0152.4368,2.2672.5616,4.5343,1.9967,5.6679,4.0558.1889.3744.3778.8112.4408,1.1856v.1872c.063.1872,0,.4368,0,.5616l-.4584.8627c-1.6955-.8273-3.7153-1.2878-5.8395-1.2878-3.3179,0-4.3342.4775-5.7808,1.2743l-.0429-.0575c-2.3726-3.1328-3.627-6.8369-3.627-10.7129C1.325,9.3581,9.4349,1.3248,19.4036,1.3248s18.0791,8.0332,18.0791,17.9072c0,3.9554-1.2957,7.6937-3.731,10.8431Z" fill="#4d4d4f"></path></g></g><g id="Layer_2"><path d="M19.4038,37.764c10.3298,0,18.7038-8.2971,18.7038-18.532S29.7336.7,19.4038.7.7,8.9971.7,19.232s8.374,18.532,18.7038,18.532Z" fill="none" stroke="#4d4d4f" stroke-width="1.4"></path></g></svg>